# xmcd
# 
# Track frame offsets:
#     150
#     29457
#     53755
#     83580
#     108555
#     147232
#     162075
#     188535
#     217447
#     239590
#     263142
#     310265
# 
# Disc length: 4339
# 
# Revision: 2
# Processed by: cddbd v1.5.2PL0 Copyright (c) Steve Scherf et al.
# Submitted via: BonkEnc v1.0.8
# 
DISCID=a810f10c
DTITLE=Mike Mainieri - An American Diary: The Dreamings
DYEAR=1997
DGENRE=Contemporary Jazz
TTITLE0="R"  Is for Riddle
TTITLE1=Los Dos Lorettas
TTITLE2=The Dreamings
TTITLE3=Schecharchoret
TTITLE4=Bashi-Bazouk
TTITLE5=Dear, My Friend (The Gift)
TTITLE6=Planting Rice Is Never Fun
TTITLE7=Straphangin'
TTITLE8=An American Tale
TTITLE9=Peyote Prayer
TTITLE10=One Night in Paradise
TTITLE11=Why Gypsies Are Scattered All Over the Earth
EXTD=
EXTT0=
EXTT1=
EXTT2=
EXTT3=
EXTT4=
EXTT5=
EXTT6=
EXTT7=
EXTT8=
EXTT9=
EXTT10=
EXTT11=
PLAYORDER=
